<svg xmlns="http://www.w3.org/2000/svg" id="_レイヤー_2" data-name="レイヤー 2" viewBox="0 0 870.42 383.82"><defs><style>.cls-1{fill:#ffc13f}.cls-1,.cls-2,.cls-3,.cls-4{stroke-width:0}.cls-2{fill:#207f00}.cls-3{fill:#e90027}.cls-4{fill:#d45f00}</style></defs><g id="_レイヤー_1-2" data-name="レイヤー 1"><path d="M724.6 276.12C724.6 155.1 591.94 57 428.29 57s-296.31 98.1-296.31 219.12c0 2.5.08 4.99.19 7.47h592.25c.11-2.48.19-4.97.19-7.47ZM132.16 295.59c.62 13.63 2.92 26.95 6.76 39.84h578.73c3.84-12.89 6.14-26.21 6.76-39.84H132.16ZM79.68 343.98h697.21v39.84H79.68z" class="cls-1"/><rect width="55.45" height="69.99" x="400.56" class="cls-4" rx="10.45" ry="10.45"/><path d="M67.69 137.86h22v203.97h-22z" class="cls-2" transform="rotate(-20 78.694 239.857)"/><ellipse cx="40.52" cy="134.99" class="cls-2" rx="37.46" ry="58.66" transform="rotate(-20 40.52 135.003)"/><path d="M763.91 137.57h22v203.97h-22z" class="cls-2" transform="rotate(20 774.918 239.567)"/><path d="M790.14 61.55h16.67v56.47h-16.67z" class="cls-2" transform="rotate(20 798.474 89.779)"/><path d="M815.46 71.67h16.67v67.17h-16.67z" class="cls-2" transform="rotate(20 823.804 105.253)"/><path d="M844.65 81.94h16.67v56.16h-16.67z" class="cls-2" transform="rotate(20 852.976 110.02)"/><path d="M780.13 115.68c-12.33 33.88-6.57 67.08 12.88 74.15 19.44 7.08 45.2-14.65 57.53-48.53.3-.83.54-1.65.82-2.48l-70.26-25.57c-.32.81-.66 1.6-.96 2.43Z" class="cls-2"/><path d="m795.51 118.67-14.14-5.15c-.32.81-.66 1.6-.96 2.43-.98 2.68-1.8 5.36-2.55 8.02l13.88 5.05 3.77-10.35ZM837.05 133.79l14.14 5.15c-.28.83-.52 1.65-.82 2.48-.98 2.68-2.06 5.26-3.2 7.78l-13.88-5.05 3.77-10.35Z" class="cls-2"/><path d="M279.59 159.5c4.4-.7 6.6-1.03 11-1.68l3.2 21.89c7.44-1.09 11.16-1.6 18.61-2.53-1.1-8.78-1.66-13.17-2.76-21.95 4.4-.55 6.6-.82 11-1.32 2.21 19.42 4.43 38.84 6.64 58.27-4.13.47-6.19.72-10.32 1.24-1.28-10.2-1.93-15.31-3.21-25.51-7.36.93-11.04 1.43-18.39 2.5 1.49 10.18 2.23 15.27 3.72 25.44-4.13.6-6.2.92-10.32 1.57-3.06-19.31-6.12-38.61-9.17-57.92ZM339.94 167.25c4.23-.4 6.35-.59 10.58-.94.69 8.33 1.04 12.49 1.74 20.82.34 4.05.83 6.84 1.49 8.38.65 1.53 1.59 2.69 2.81 3.47 1.22.78 2.67 1.11 4.35.98 1.68-.13 3.07-.66 4.19-1.6 1.12-.94 1.9-2.27 2.36-3.98.34-1.27.37-3.95.1-8.04-.56-8.48-.85-12.72-1.41-21.2 4.19-.28 6.29-.41 10.48-.64.41 7.34.61 11.01 1.01 18.35.42 7.56.14 12.77-.81 15.62-1.16 3.47-3 6.2-5.5 8.18-2.5 1.98-5.75 3.11-9.77 3.42-4.36.33-7.97-.44-10.85-2.32s-5.05-4.68-6.52-8.34c-1.02-2.54-1.88-7.27-2.54-14.18-.68-7.19-1.02-10.79-1.71-17.98ZM393.04 163.74c4.2-.16 6.29-.23 10.49-.34.05 1.78.07 2.67.12 4.44 2.31-2.14 4.44-3.64 6.35-4.49 1.92-.85 3.89-1.29 5.91-1.32 4.15-.05 7.71 1.43 10.58 4.43 2.43 2.53 3.62 6.33 3.61 11.32l-.06 28.66c-3.96 0-5.94 0-9.9.03-.07-7.6-.1-11.4-.17-18.99-.05-5.18-.3-8.61-.75-10.31-.46-1.69-1.24-2.98-2.35-3.86-1.11-.88-2.48-1.3-4.1-1.28-2.1.04-3.89.81-5.36 2.31-1.47 1.51-2.46 3.57-2.97 6.19-.27 1.36-.34 4.3-.22 8.81.18 6.96.28 10.44.46 17.4-4 .11-6 .17-10 .32-.54-14.45-1.09-28.9-1.63-43.34ZM477.08 164.36c4.18.22 6.27.34 10.44.61-.79 12.36-1.57 24.72-2.36 37.08-.47 7.32-2.18 12.62-5.05 15.91-3.87 4.44-9.36 6.49-16.55 6.2-3.83-.16-7.04-.79-9.62-1.93-2.59-1.14-4.76-2.75-6.53-4.85-1.77-2.1-3.06-4.63-3.89-7.59 4.4.08 6.6.13 10.99.26.94 1.25 2.16 2.21 3.67 2.89 1.51.68 3.3 1.05 5.39 1.14 2.67.11 4.83-.25 6.5-1.07 1.67-.83 2.88-1.93 3.62-3.33.74-1.4 1.21-3.85 1.39-7.35-1.87 1.82-3.78 3.1-5.75 3.85-1.97.75-4.17 1.07-6.62.98-5.35-.21-9.8-2.43-13.41-6.72-3.62-4.29-5.41-9.63-5.3-16.06.12-6.88 2.23-12.39 6.41-16.46 3.78-3.68 8.29-5.44 13.45-5.25 2.41.09 4.67.65 6.77 1.66 2.1 1.01 4.17 2.63 6.2 4.83l.25-4.78Zm-11.24 8.53c-3.27-.13-6.02.92-8.21 3.15-2.2 2.23-3.33 5.09-3.43 8.57-.1 3.61.89 6.6 2.95 8.98 2.06 2.38 4.68 3.63 7.89 3.76 3.14.13 5.77-.88 7.93-3.03s3.34-5.06 3.54-8.72c.19-3.61-.69-6.6-2.68-8.96-1.99-2.36-4.65-3.62-7.97-3.75ZM501.56 165.96c3.59.28 5.39.43 8.97.75-.19 2.18-.29 3.26-.48 5.44 1.15-2.06 2.59-3.57 4.3-4.53 1.71-.96 3.53-1.35 5.45-1.16 1.35.13 2.74.65 4.14 1.54-1.69 3.59-2.52 5.39-4.18 8.99-1.15-.76-2.12-1.17-2.9-1.25-1.59-.15-3.04.75-4.33 2.72-1.29 1.96-2.2 5.97-2.74 12l-.15 2.11c-.63 6.99-.94 10.48-1.57 17.47-3.96-.36-5.94-.52-9.91-.84l3.4-43.24ZM530.37 168.68c4.27.47 6.41.72 10.67 1.24 2.51 9.42 4.91 18.88 7.2 28.35 5.05-8.5 10.23-16.95 15.5-25.31 4.27.63 6.4.95 10.66 1.63a1512.93 1512.93 0 0 0-33.62 55.01c-4.04-.52-6.05-.77-10.1-1.25 4.1-7.21 6.19-10.8 10.42-17.97-3.42-13.94-7.01-27.83-10.75-41.69Z" class="cls-3"/></g></svg>